<?xml version="1.0" encoding="UTF-8"?>
<svg id="a" data-name="Laag 1" xmlns="http://www.w3.org/2000/svg" width="1920" height="1080" viewBox="0 0 1920 1080">
  <rect width="1920" height="1080" fill="#f8f8f8"/>
  <g>
    <path d="m539.646,413.971l-25.561-44.272h-25.17l-43.219,74.858c-2.711,4.696-4.139,10.024-4.139,15.447v84.075h21.797v-55.616h76.291v55.616h21.797v-84.075c0-5.423-1.428-10.751-4.139-15.447l-17.658-30.585Zm-76.291,44.712c0-1.847.497-3.661,1.439-5.25l36.707-61.937,36.707,61.937c.942,1.589,1.439,3.403,1.439,5.25v7.732h-76.291v-7.732Z"/>
    <path d="m1065.105,409.676c-1.931-1.931-4.551-3.016-7.282-3.016h-35.064c-2.731,0-5.351,1.085-7.282,3.016l-18.781,18.781v-21.798h-21.797v137.418h21.797v-105.322c0-5.687,4.611-10.298,10.298-10.298h55.695c5.687,0,10.298,4.611,10.298,10.298v105.322h21.797v-100.456c0-2.731-1.085-5.351-3.016-7.282l-26.664-26.664Z"/>
    <path d="m689.329,455.093c0,1.847-.497,3.661-1.439,5.25l-33.056,55.778c-2.389,4.032-3.65,8.632-3.65,13.319,0-4.687-1.261-9.287-3.65-13.319l-33.057-55.778c-.942-1.589-1.439-3.403-1.439-5.25v-48.433h-21.797v47.113c0,5.423,1.427,10.751,4.139,15.447l40.247,69.709c1.839,3.186,5.239,5.149,8.918,5.149h13.279c3.679,0,7.079-1.963,8.918-5.149l40.246-69.709c2.712-4.696,4.139-10.024,4.139-15.447v-47.113h-21.797v48.433Z"/>
    <path d="m1299.079,409.676c-1.931-1.931-4.551-3.016-7.282-3.016h-45.962c-2.731,0-5.35,1.085-7.282,3.016l-26.664,26.664c-1.932,1.931-3.016,4.551-3.016,7.282v63.494c0,2.731,1.085,5.351,3.016,7.282l26.664,26.664c1.931,1.931,4.551,3.016,7.282,3.016h45.962c2.731,0,5.351-1.085,7.282-3.016l26.664-26.664c1.931-1.931,3.016-4.551,3.016-7.282v-12.151h-21.797v17.018c0,5.687-4.611,10.298-10.298,10.298h-55.695c-5.687,0-10.298-4.611-10.298-10.298v-73.227c0-5.687,4.611-10.298,10.298-10.298h55.695c5.688,0,10.298,4.611,10.298,10.298v16.949h21.797v-12.082c0-2.731-1.085-5.351-3.016-7.282l-26.664-26.664Z"/>
    <path d="m915.421,409.676c-1.931-1.931-4.551-3.016-7.282-3.016h-45.962c-2.731,0-5.35,1.085-7.282,3.016l-26.664,26.664c-1.932,1.931-3.016,4.551-3.016,7.282v63.494c0,2.731,1.085,5.351,3.016,7.282l26.664,26.664c1.931,1.931,4.551,3.016,7.282,3.016h45.962c2.731,0,5.351-1.085,7.282-3.016l26.664-26.664c1.931-1.931,3.016-4.551,3.016-7.282v-63.494c0-2.731-1.085-5.351-3.016-7.282l-26.664-26.664Zm7.883,86.765v15.541c0,5.687-4.611,10.298-10.298,10.298h-55.695c-5.687,0-10.298-4.611-10.298-10.298v-73.227c0-5.687,4.611-10.298,10.298-10.298h55.695c5.688,0,10.298,4.611,10.298,10.298v57.686Z"/>
    <path d="m1448.763,409.676c-1.931-1.931-4.551-3.016-7.282-3.016h-72v21.797h76.866c5.687,0,10.298,4.611,10.298,10.298v25.715h-61.127c-2.731,0-5.35,1.085-7.282,3.016l-26.664,26.664c-1.931,1.931-3.016,4.551-3.016,7.282v5.684c0,2.731,1.085,5.351,3.016,7.282l26.664,26.664c1.931,1.931,4.551,3.016,7.282,3.016h35.064c2.731,0,5.35-1.085,7.282-3.016l18.781-18.781v21.798h21.797v-100.456c0-2.731-1.085-5.351-3.016-7.282l-26.664-26.664Zm-2.415,112.604h-55.695c-5.688,0-10.298-4.611-10.298-10.298v-15.417c0-5.687,4.611-10.298,10.298-10.298h65.993v25.715c0,5.687-4.611,10.298-10.298,10.298Z"/>
    <g>
      <path d="m773.62,438.756v105.322h21.797v-100.456c0-2.731-1.085-5.351-3.016-7.282l-26.664-26.664c-1.931-1.931-4.551-3.016-7.282-3.016h-17.532v21.797h22.398c5.687,0,10.298,4.611,10.298,10.298Z"/>
      <rect x="768.733" y="363.065" width="30.124" height="30.124"/>
    </g>
    <g>
      <path d="m1157.278,438.756v105.322h21.797v-100.456c0-2.731-1.085-5.351-3.016-7.282l-26.664-26.664c-1.931-1.931-4.551-3.016-7.282-3.016h-17.532v21.797h22.398c5.687,0,10.298,4.611,10.298,10.298Z"/>
      <rect x="1152.391" y="363.065" width="30.124" height="30.124"/>
    </g>
  </g>
  <rect x="833.954" y="643.31" width="252.257" height="111.551" rx="55.775" ry="55.775"/>
  <g>
    <path d="m915.806,695.417l-15.763-23.343h7.646l12.007,18.581,12.007-18.581h7.58l-15.763,23.343,17.105,24.55h-7.58l-13.348-19.989-13.416,19.989h-7.58l17.105-24.55Z" fill="#f8f8f8"/>
    <path d="m942.104,696.02c0-13.013,7.513-25.087,22.27-25.087,10.934,0,17.978,5.97,20.124,15.897h-6.373c-1.677-6.171-6.573-10.531-13.751-10.531-11.269,0-16.098,10.062-16.098,19.721s4.83,19.721,16.098,19.721c8.385,0,13.685-5.903,14.288-13.818h6.372c-1.207,11.94-8.586,19.185-20.66,19.185-14.757,0-22.27-12.074-22.27-25.087Z" fill="#f8f8f8"/>
    <path d="m993.557,672.073h6.372v42.527h25.355v5.366h-31.728v-47.894Z" fill="#f8f8f8"/>
  </g>
</svg>